<?xml version="1.0" standalone="no"?>
<!DOCTYPE svg PUBLIC "-//W3C//DTD SVG 20010904//EN"
 "http://www.w3.org/TR/2001/REC-SVG-20010904/DTD/svg10.dtd">
<svg version="1.0" xmlns="http://www.w3.org/2000/svg"
 width="512.000000pt" height="512.000000pt" viewBox="0 0 512.000000 512.000000"
 preserveAspectRatio="xMidYMid meet">

<g transform="translate(0.000000,512.000000) scale(0.100000,-0.100000)"
fill="#000000" stroke="none">
<path d="M2751 4384 c-65 -55 -23 -154 66 -154 23 0 83 65 83 90 0 30 -62 90
-93 90 -14 0 -39 -12 -56 -26z"/>
<path d="M3043 4352 c-55 -43 -59 -108 -11 -159 38 -41 111 -30 147 22 18 27
22 42 17 69 -13 70 -101 109 -153 68z"/>
<path d="M2401 4328 c-76 -21 -120 -82 -121 -164 0 -41 6 -59 30 -92 71 -98
189 -98 265 2 21 28 26 46 26 89 0 81 -41 138 -120 165 -38 14 -34 14 -80 0z"/>
<path d="M2076 4289 c-43 -51 -30 -124 28 -154 43 -23 71 -18 110 19 45 42 48
84 10 133 -22 29 -30 33 -74 33 -42 0 -52 -4 -74 -31z"/>
<path d="M3314 4234 c-37 -8 -105 -75 -125 -122 -37 -86 -15 -188 55 -249 70
-62 189 -69 268 -16 59 39 101 121 95 184 -5 64 -41 133 -89 170 -35 28 -48
32 -111 35 -40 1 -82 0 -93 -2z"/>
<path d="M2820 4191 c-19 -10 -50 -38 -69 -62 -31 -41 -33 -47 -29 -111 3 -58
8 -72 33 -99 68 -71 155 -88 224 -45 70 44 109 117 97 180 -22 118 -157 190
-256 137z"/>
<path d="M1905 4093 c-55 -28 -93 -74 -111 -130 -16 -51 -16 -58 -1 -107 27
-86 119 -156 203 -156 57 0 135 54 177 122 35 57 11 184 -45 235 -58 53 -160
70 -223 36z"/>
<path d="M1646 3965 c-34 -31 -34 -67 0 -94 34 -26 54 -26 82 -1 32 30 29 74
-7 99 -37 27 -42 26 -75 -4z"/>
<path d="M2333 3943 c-37 -7 -83 -68 -83 -110 0 -112 133 -160 211 -77 19 20
24 37 24 75 0 41 -5 53 -30 78 -30 30 -79 43 -122 34z"/>
<path d="M2538 3787 c-50 -38 -67 -89 -52 -159 13 -59 77 -108 140 -108 56 0
114 29 137 68 22 38 22 121 1 159 -26 45 -78 73 -134 73 -39 0 -57 -6 -92 -33z"/>
<path d="M1626 3716 c-30 -28 -36 -40 -36 -75 0 -58 14 -80 66 -102 42 -19 46
-19 79 -3 72 34 95 99 56 158 -43 65 -110 74 -165 22z"/>
<path d="M2030 3642 c-63 -30 -110 -97 -110 -155 0 -35 25 -96 49 -118 59 -55
143 -64 208 -23 55 37 73 70 73 141 0 97 -54 155 -149 160 -31 1 -63 -1 -71
-5z"/>
<path d="M1767 3488 c-14 -28 -14 -35 -1 -60 29 -56 124 -32 124 32 0 36 -29
60 -72 60 -30 0 -38 -5 -51 -32z"/>
<path d="M1505 3463 c-80 -21 -86 -151 -9 -188 40 -19 69 -15 107 16 23 17 27
28 27 73 0 42 -5 57 -23 74 -24 23 -69 34 -102 25z"/>
<path d="M2329 3439 c-21 -29 -21 -34 -8 -58 21 -37 55 -51 90 -39 78 27 57
128 -25 128 -27 0 -39 -7 -57 -31z"/>
<path d="M2508 3396 c-21 -15 -24 -76 -6 -94 7 -7 31 -12 54 -12 38 0 43 3 53
30 12 36 1 74 -24 84 -26 10 -58 7 -77 -8z"/>
<path d="M1678 3314 c-48 -31 -78 -89 -78 -151 0 -89 84 -173 173 -173 33 0
94 24 120 48 27 24 57 91 57 127 0 30 -26 93 -52 126 -43 53 -156 65 -220 23z"/>
<path d="M2546 3253 c-31 -8 -74 -38 -97 -67 -25 -32 -30 -132 -7 -165 34 -48
70 -66 133 -66 64 0 99 18 134 68 24 34 20 128 -8 163 -39 49 -108 79 -155 67z"/>
<path d="M2180 3193 c-60 -23 -100 -81 -100 -145 0 -43 12 -69 54 -115 28 -31
34 -33 101 -33 67 0 73 2 102 33 41 43 53 69 53 115 0 85 -67 153 -150 151
-25 0 -52 -3 -60 -6z"/>
<path d="M1640 2940 c-11 -11 -20 -31 -20 -44 0 -31 46 -86 72 -86 27 0 78 53
78 82 0 58 -88 90 -130 48z"/>
<path d="M1969 2881 c-69 -32 -99 -75 -99 -142 0 -65 27 -106 88 -135 50 -24
57 -25 98 -13 86 26 124 88 110 183 -13 86 -120 144 -197 107z"/>
<path d="M2355 2870 c-87 -27 -138 -115 -115 -201 14 -52 22 -63 74 -101 60
-43 144 -38 198 14 42 40 58 75 58 125 0 109 -112 194 -215 163z"/>
<path d="M2620 2860 c-22 -22 -26 -60 -10 -90 22 -41 101 -32 122 14 30 68
-60 128 -112 76z"/>
<path d="M1743 2749 c-25 -9 -38 -47 -29 -84 13 -50 88 -51 116 -2 13 24 13
30 0 54 -17 30 -55 44 -87 32z"/>
<path d="M2659 2695 c-57 -37 -79 -75 -79 -136 0 -64 31 -110 95 -140 42 -20
46 -20 93 -5 27 9 62 30 78 47 26 27 29 37 29 94 0 74 -19 107 -81 142 -50 29
-89 28 -135 -2z"/>
<path d="M2988 2520 c-154 -29 -189 -234 -56 -330 35 -26 50 -30 103 -30 53 0
68 4 103 30 78 56 101 144 63 234 -33 75 -119 114 -213 96z"/>
<path d="M2045 2485 c-49 -48 -22 -115 45 -115 38 0 59 22 60 63 0 31 -39 77
-65 77 -9 0 -27 -11 -40 -25z"/>
<path d="M2235 2433 c-75 -39 -108 -108 -85 -180 34 -104 141 -144 230 -84 96
64 93 185 -6 253 -45 31 -94 35 -139 11z"/>
<path d="M2594 2366 c-16 -7 -47 -33 -67 -57 -32 -36 -37 -50 -37 -91 0 -85
54 -162 127 -179 87 -20 164 14 203 92 40 76 15 165 -62 222 -34 26 -121 33
-164 13z"/>
<path d="M3217 2136 c-55 -34 -77 -75 -77 -144 0 -49 5 -62 30 -91 39 -44 73
-61 122 -61 80 0 149 59 164 140 6 26 1 46 -20 87 -47 89 -140 118 -219 69z"/>
<path d="M2884 2101 c-32 -14 -66 -68 -66 -105 0 -107 113 -163 194 -96 55 46
60 127 9 181 -22 24 -100 36 -137 20z"/>
<path d="M2375 2084 c-22 -7 -41 -14 -42 -14 -12 -1 -53 -81 -53 -103 0 -34
25 -84 54 -109 31 -26 115 -24 150 3 31 24 56 69 56 99 0 30 -37 97 -59 110
-48 25 -67 28 -106 14z"/>
<path d="M3525 1928 c-131 -47 -162 -199 -59 -299 33 -32 39 -34 107 -34 90 0
128 23 164 102 24 53 25 54 8 107 -33 104 -127 157 -220 124z"/>
<path d="M3058 1879 c-30 -11 -68 -65 -68 -95 0 -30 38 -84 66 -94 41 -16 91
-2 115 31 40 56 23 124 -37 153 -39 18 -39 18 -76 5z"/>
<path d="M2645 1865 c-43 -20 -60 -36 -78 -72 -51 -97 24 -223 133 -223 106 0
178 97 148 200 -11 36 -23 51 -62 78 -53 35 -92 40 -141 17z"/>
<path d="M2396 1759 c-33 -26 -35 -68 -3 -96 31 -29 48 -32 80 -16 69 35 46
133 -31 133 -11 0 -31 -9 -46 -21z"/>
<path d="M3190 1642 c-34 -21 -49 -39 -59 -70 -16 -48 -9 -106 17 -142 27 -38
100 -72 138 -65 111 20 166 111 126 206 -25 58 -70 91 -131 96 -38 4 -54 -1
-91 -25z"/>
<path d="M2816 1580 c-46 -29 -66 -68 -66 -128 0 -66 22 -107 72 -133 107 -55
228 15 228 132 0 51 -29 100 -74 128 -42 27 -119 27 -160 1z"/>
<path d="M2515 1508 c-39 -23 -54 -52 -55 -101 0 -41 5 -53 29 -78 25 -24 37
-29 78 -29 95 1 143 86 93 168 -30 48 -98 67 -145 40z"/>
<path d="M3573 1423 c-12 -2 -27 -11 -33 -19 -7 -8 -18 -14 -24 -14 -22 0 -56
-75 -56 -122 0 -34 7 -55 30 -87 38 -51 68 -64 143 -59 46 4 63 10 87 33 38
37 55 90 46 149 -6 37 -15 52 -48 81 -23 19 -47 35 -54 35 -6 0 -24 2 -40 4
-16 2 -39 2 -51 -1z"/>
<path d="M1967 1355 c-54 -53 -59 -105 -15 -167 38 -54 138 -58 189 -7 19 19
23 34 24 82 0 55 -2 61 -37 93 -31 28 -46 34 -81 34 -37 0 -50 -6 -80 -35z"/>
<path d="M3150 1297 c-147 -87 -128 -295 34 -361 49 -20 85 -20 138 1 55 22
104 76 124 137 16 46 15 53 -1 105 -42 137 -175 190 -295 118z"/>
<path d="M2660 1283 c-91 -35 -120 -72 -120 -154 0 -91 57 -151 144 -153 96
-1 156 59 156 154 0 64 -26 111 -74 134 -41 19 -85 27 -106 19z"/>
<path d="M2238 1244 c-63 -40 -82 -112 -52 -189 23 -60 56 -80 134 -80 81 0
119 24 145 91 16 42 16 50 3 92 -32 100 -145 142 -230 86z"/>
<path d="M2909 1240 c-33 -33 -36 -56 -10 -87 27 -32 74 -31 100 3 26 33 26
45 1 76 -30 39 -58 42 -91 8z"/>
<path d="M2820 979 c-30 -12 -40 -26 -40 -60 0 -55 83 -82 114 -37 22 32 20
55 -9 83 -27 28 -29 28 -65 14z"/>
<path d="M2501 956 c-42 -45 -9 -116 53 -116 27 0 66 41 66 69 0 64 -76 93
-119 47z"/>
<path d="M3012 934 c-18 -12 -22 -24 -20 -52 6 -69 92 -83 127 -21 13 24 13
29 -8 58 -25 35 -62 41 -99 15z"/>
</g>
</svg>
